<svg xmlns="http://www.w3.org/2000/svg" xmlns:xlink="http://www.w3.org/1999/xlink" width="273" zoomAndPan="magnify" viewBox="0 0 204.75 72.749999" height="97" preserveAspectRatio="xMidYMid meet" version="1.0"><defs><clipPath id="beff343aa3"><path d="M 0.226562 28.386719 L 12.222656 28.386719 L 12.222656 54.71875 L 0.226562 54.71875 Z M 0.226562 28.386719 " clip-rule="nonzero"/></clipPath><clipPath id="9fb9b57d2d"><path d="M 1.785156 28.386719 L 10.601562 28.386719 C 11.5 28.386719 12.222656 29.113281 12.222656 30.007812 L 12.222656 53.058594 C 12.222656 53.953125 11.5 54.679688 10.601562 54.679688 L 1.785156 54.679688 C 0.890625 54.679688 0.164062 53.953125 0.164062 53.058594 L 0.164062 30.007812 C 0.164062 29.113281 0.890625 28.386719 1.785156 28.386719 Z M 1.785156 28.386719 " clip-rule="nonzero"/></clipPath><clipPath id="e007aee430"><path d="M 1.785156 28.386719 L 10.601562 28.386719 C 11.5 28.386719 12.222656 29.113281 12.222656 30.007812 L 12.222656 53.058594 C 12.222656 53.953125 11.5 54.679688 10.601562 54.679688 L 1.785156 54.679688 C 0.890625 54.679688 0.164062 53.953125 0.164062 53.058594 L 0.164062 30.007812 C 0.164062 29.113281 0.890625 28.386719 1.785156 28.386719 Z M 1.785156 28.386719 " clip-rule="nonzero"/></clipPath><clipPath id="62d2037478"><path d="M 0.226562 17.519531 L 12.222656 17.519531 L 12.222656 30.378906 L 0.226562 30.378906 Z M 0.226562 17.519531 " clip-rule="nonzero"/></clipPath><clipPath id="252a1fc85e"><path d="M 0.164062 30.378906 C 0.164062 26.996094 1.449219 23.683594 3.695312 21.285156 C 5.941406 18.894531 9.046875 17.519531 12.222656 17.519531 L 12.222656 30.378906 Z M 0.164062 30.378906 " clip-rule="nonzero"/></clipPath><clipPath id="1eb82f8987"><path d="M 0.164062 30.378906 C 0.164062 26.996094 1.449219 23.683594 3.695312 21.285156 C 5.941406 18.894531 9.046875 17.519531 12.222656 17.519531 L 12.222656 30.378906 Z M 0.164062 30.378906 " clip-rule="nonzero"/></clipPath><clipPath id="572a7b1e1c"><path d="M 0.226562 0.433594 L 12.214844 0.433594 L 12.214844 2.457031 L 0.226562 2.457031 Z M 0.226562 0.433594 " clip-rule="nonzero"/></clipPath><clipPath id="163072ac2c"><path d="M 12.210938 1.449219 C 12.210938 2.003906 11.757812 2.457031 11.199219 2.457031 L 1.175781 2.457031 C 0.617188 2.457031 0.164062 2.003906 0.164062 1.449219 C 0.164062 0.886719 0.617188 0.433594 1.175781 0.433594 L 11.199219 0.433594 C 11.757812 0.433594 12.210938 0.886719 12.210938 1.449219 Z M 12.210938 1.449219 " clip-rule="nonzero"/></clipPath><clipPath id="376f06f848"><path d="M 12.210938 1.449219 C 12.210938 2.003906 11.757812 2.457031 11.199219 2.457031 L 1.175781 2.457031 C 0.617188 2.457031 0.164062 2.003906 0.164062 1.449219 C 0.164062 0.886719 0.617188 0.433594 1.175781 0.433594 L 11.199219 0.433594 C 11.757812 0.433594 12.210938 0.886719 12.210938 1.449219 Z M 12.210938 1.449219 " clip-rule="nonzero"/></clipPath><clipPath id="234860dd48"><path d="M 0.226562 1.4375 L 12.21875 1.4375 L 12.21875 14.300781 L 0.226562 14.300781 Z M 0.226562 1.4375 " clip-rule="nonzero"/></clipPath><clipPath id="803fc3ddc2"><path d="M 12.21875 14.300781 C 9.046875 14.300781 5.941406 12.925781 3.695312 10.535156 C 1.449219 8.136719 0.164062 4.828125 0.164062 1.4375 L 12.21875 1.4375 Z M 12.21875 14.300781 " clip-rule="nonzero"/></clipPath><clipPath id="6cdc60ba87"><path d="M 12.21875 14.300781 C 9.046875 14.300781 5.941406 12.925781 3.695312 10.535156 C 1.449219 8.136719 0.164062 4.828125 0.164062 1.4375 L 12.21875 1.4375 Z M 12.21875 14.300781 " clip-rule="nonzero"/></clipPath></defs><g clip-path="url(#beff343aa3)"><g clip-path="url(#9fb9b57d2d)"><g clip-path="url(#e007aee430)"><path fill="#012b1b" d="M 0.164062 28.386719 L 12.222656 28.386719 L 12.222656 54.675781 L 0.164062 54.675781 Z M 0.164062 28.386719 " fill-opacity="1" fill-rule="nonzero"/></g></g></g><g clip-path="url(#62d2037478)"><g clip-path="url(#252a1fc85e)"><g clip-path="url(#1eb82f8987)"><path fill="#012b1b" d="M 0.164062 17.519531 L 12.222656 17.519531 L 12.222656 30.378906 L 0.164062 30.378906 Z M 0.164062 17.519531 " fill-opacity="1" fill-rule="nonzero"/></g></g></g><path fill="#012b1b" d="M 15.59375 54.703125 C 16.902344 51.078125 17.882812 47.792969 18.539062 44.84375 C 19.191406 41.886719 19.519531 39.023438 19.519531 36.246094 C 19.519531 33.472656 19.191406 30.601562 18.539062 27.632812 C 17.882812 24.660156 16.902344 21.382812 15.59375 17.796875 L 28.503906 17.796875 L 25.75 34.117188 L 26.863281 34.117188 C 27.257812 32.285156 27.957031 30.359375 28.957031 28.351562 C 29.964844 26.339844 31.191406 24.484375 32.632812 22.777344 C 34.070312 21.074219 35.644531 19.683594 37.351562 18.613281 C 39.058594 17.546875 40.828125 17.011719 42.664062 17.011719 C 44.9375 17.011719 46.457031 17.480469 47.222656 18.421875 C 47.988281 19.363281 48.324219 20.640625 48.234375 22.253906 C 48.152344 23.871094 47.910156 25.730469 47.519531 27.828125 L 48.496094 27.828125 C 49.589844 25.902344 50.84375 24.121094 52.265625 22.484375 C 53.6875 20.84375 55.230469 19.523438 56.890625 18.523438 C 58.550781 17.515625 60.257812 17.011719 62.007812 17.011719 C 63.925781 17.011719 65.300781 17.359375 66.128906 18.058594 C 66.960938 18.757812 67.429688 19.71875 67.539062 20.945312 C 67.652344 22.167969 67.5625 23.609375 67.277344 25.269531 C 66.996094 26.929688 66.691406 28.710938 66.367188 30.613281 C 66.039062 32.511719 65.875 34.46875 65.875 36.484375 C 65.875 39.628906 66.289062 42.765625 67.117188 45.890625 C 67.949219 49.011719 68.867188 51.953125 69.871094 54.703125 L 52.035156 54.703125 C 50.941406 52.605469 50.410156 50.625 50.429688 48.769531 C 50.453125 46.910156 50.859375 45.175781 51.648438 43.558594 C 52.433594 41.945312 53.429688 40.449219 54.628906 39.074219 C 55.832031 37.695312 57.085938 36.425781 58.394531 35.265625 C 59.707031 34.109375 60.90625 33.050781 62 32.089844 C 63.097656 31.128906 63.917969 30.265625 64.464844 29.5 C 65.011719 28.734375 65.109375 28.066406 64.761719 27.5 C 64.542969 27.148438 63.925781 26.976562 62.921875 26.976562 C 61.875 26.976562 60.519531 27.207031 58.859375 27.667969 C 57.199219 28.125 55.46875 28.832031 53.675781 29.796875 C 51.882812 30.753906 50.246094 31.972656 48.757812 33.460938 C 47.273438 34.945312 46.125 36.71875 45.316406 38.769531 C 44.507812 40.828125 44.257812 43.175781 44.5625 45.820312 C 44.871094 48.46875 45.945312 51.429688 47.78125 54.703125 L 32.835938 54.703125 C 31.738281 52.605469 31.199219 50.625 31.222656 48.769531 C 31.242188 46.910156 31.648438 45.175781 32.4375 43.558594 C 33.226562 41.945312 34.21875 40.449219 35.417969 39.074219 C 36.621094 37.695312 37.878906 36.425781 39.191406 35.265625 C 40.503906 34.109375 41.703125 33.050781 42.796875 32.089844 C 43.890625 31.128906 44.707031 30.265625 45.253906 29.5 C 45.800781 28.734375 45.898438 28.066406 45.550781 27.5 C 45.332031 27.148438 44.71875 26.976562 43.710938 26.976562 C 42.664062 26.976562 41.308594 27.207031 39.648438 27.667969 C 37.988281 28.125 36.257812 28.832031 34.464844 29.796875 C 32.675781 30.753906 31.035156 31.972656 29.550781 33.460938 C 28.0625 34.945312 26.914062 36.71875 26.105469 38.769531 C 25.296875 40.828125 25.050781 43.175781 25.351562 45.820312 C 25.660156 48.46875 26.734375 51.429688 28.570312 54.703125 Z M 15.59375 54.703125 " fill-opacity="1" fill-rule="nonzero"/><path fill="#012b1b" d="M 71.964844 71.230469 C 73.011719 68.339844 73.851562 65.117188 74.480469 61.550781 C 75.117188 57.992188 75.535156 54.261719 75.730469 50.347656 C 75.929688 46.4375 75.929688 42.535156 75.730469 38.644531 C 75.535156 34.753906 75.117188 31.027344 74.480469 27.464844 C 73.851562 23.902344 73.011719 20.679688 71.964844 17.796875 L 86.523438 17.796875 C 85.953125 19.542969 85.460938 21.214844 85.046875 22.8125 C 84.628906 24.40625 84.3125 25.945312 84.089844 27.429688 L 85.078125 27.5 C 85.6875 25.707031 86.449219 24.027344 87.367188 22.457031 C 88.289062 20.882812 89.429688 19.601562 90.777344 18.613281 C 92.132812 17.632812 93.796875 17.136719 95.761719 17.136719 C 97.769531 17.136719 99.691406 17.804688 101.527344 19.140625 C 103.367188 20.472656 104.875 22.59375 106.054688 25.496094 C 107.234375 28.402344 107.828125 32.214844 107.828125 36.9375 C 107.828125 42.839844 106.546875 47.40625 103.992188 50.644531 C 101.4375 53.875 98.082031 55.488281 93.929688 55.488281 C 93.011719 55.488281 91.917969 55.304688 90.652344 54.933594 C 89.386719 54.5625 88.136719 53.808594 86.910156 52.667969 C 85.691406 51.535156 84.660156 49.847656 83.828125 47.621094 L 82.851562 47.621094 L 84.875 71.230469 Z M 88.09375 32.34375 C 84.246094 34.96875 81.671875 37.351562 80.359375 39.496094 C 79.046875 41.636719 78.742188 43.253906 79.4375 44.34375 C 79.960938 45.222656 81.054688 45.660156 82.714844 45.660156 C 84.203125 45.660156 86.070312 45.238281 88.320312 44.386719 C 90.570312 43.53125 93.097656 42.140625 95.894531 40.214844 C 99.738281 37.554688 102.316406 35.160156 103.628906 33.039062 C 104.941406 30.914062 105.246094 29.308594 104.550781 28.214844 C 104.027344 27.34375 102.933594 26.90625 101.265625 26.90625 C 99.785156 26.90625 97.929688 27.335938 95.703125 28.191406 C 93.472656 29.042969 90.933594 30.425781 88.09375 32.34375 Z M 88.09375 32.34375 " fill-opacity="1" fill-rule="nonzero"/><path fill="#012b1b" d="M 110.441406 35.5625 C 110.441406 29.664062 111.730469 25.097656 114.308594 21.867188 C 116.894531 18.628906 120.238281 17.011719 124.339844 17.011719 C 125.4375 17.011719 126.695312 17.230469 128.117188 17.667969 C 129.535156 18.105469 130.84375 18.945312 132.042969 20.195312 C 133.246094 21.441406 134.070312 23.304688 134.507812 25.792969 L 135.488281 25.792969 L 134.179688 17.796875 L 144.664062 17.796875 C 143.351562 21.382812 142.367188 24.660156 141.710938 27.632812 C 141.054688 30.601562 140.730469 33.472656 140.730469 36.246094 C 140.730469 39.023438 141.054688 41.886719 141.710938 44.84375 C 142.367188 47.792969 143.351562 51.078125 144.664062 54.703125 L 131.753906 54.703125 C 132.363281 52.953125 132.875 51.28125 133.292969 49.6875 C 133.707031 48.097656 134.003906 46.554688 134.179688 45.070312 L 133.199219 45.070312 C 132.585938 46.816406 131.820312 48.488281 130.902344 50.085938 C 129.984375 51.679688 128.847656 52.980469 127.492188 53.988281 C 126.132812 54.988281 124.472656 55.488281 122.507812 55.488281 C 120.542969 55.488281 118.632812 54.8125 116.777344 53.464844 C 114.917969 52.109375 113.398438 49.953125 112.214844 47.003906 C 111.035156 44.054688 110.441406 40.238281 110.441406 35.5625 Z M 122.644531 32.34375 C 118.792969 34.96875 116.210938 37.351562 114.902344 39.496094 C 113.589844 41.636719 113.285156 43.253906 113.988281 44.34375 C 114.511719 45.222656 115.605469 45.660156 117.265625 45.660156 C 118.75 45.660156 120.621094 45.238281 122.871094 44.386719 C 125.121094 43.53125 127.644531 42.140625 130.4375 40.214844 C 134.289062 37.554688 136.867188 35.160156 138.179688 33.039062 C 139.492188 30.914062 139.796875 29.308594 139.09375 28.214844 C 138.570312 27.34375 137.476562 26.90625 135.816406 26.90625 C 134.332031 26.90625 132.472656 27.335938 130.242188 28.191406 C 128.015625 29.042969 125.480469 30.425781 122.644531 32.34375 Z M 122.644531 32.34375 " fill-opacity="1" fill-rule="nonzero"/><path fill="#012b1b" d="M 173.644531 27.566406 C 171.765625 27.566406 169.492188 27.851562 166.824219 28.417969 C 164.160156 28.988281 161.539062 29.945312 158.953125 31.296875 C 157.03125 32.308594 155.253906 33.441406 153.617188 34.710938 C 151.980469 35.976562 150.664062 37.324219 149.683594 38.746094 C 148.695312 40.164062 148.203125 41.617188 148.203125 43.101562 C 148.203125 44.019531 148.738281 44.664062 149.808594 45.035156 C 150.882812 45.40625 152.25 45.59375 153.914062 45.59375 C 155.703125 45.59375 157.6875 45.441406 159.875 45.136719 C 162.058594 44.828125 164.1875 44.445312 166.265625 43.988281 C 168.34375 43.527344 170.136719 43.09375 171.644531 42.679688 C 173.152344 42.265625 174.144531 41.945312 174.625 41.726562 L 174.625 54.511719 C 173.140625 54.8125 171.628906 55.054688 170.097656 55.226562 C 168.574219 55.402344 167.046875 55.488281 165.515625 55.488281 C 163.285156 55.488281 160.96875 55.171875 158.566406 54.542969 C 156.160156 53.910156 153.921875 52.859375 151.84375 51.394531 C 149.765625 49.929688 148.070312 47.988281 146.761719 45.558594 C 145.449219 43.132812 144.792969 40.128906 144.792969 36.542969 C 144.792969 32.917969 145.351562 29.859375 146.464844 27.371094 C 147.578125 24.878906 149.109375 22.878906 151.050781 21.367188 C 152.996094 19.859375 155.238281 18.757812 157.769531 18.058594 C 160.308594 17.359375 162.976562 17.011719 165.777344 17.011719 C 168.398438 17.011719 171.023438 17.273438 173.644531 17.796875 Z M 173.644531 27.566406 " fill-opacity="1" fill-rule="nonzero"/><path fill="#012b1b" d="M 202.417969 27.625 C 201.019531 27.714844 199.359375 28.046875 197.433594 28.613281 C 195.515625 29.183594 193.539062 29.960938 191.507812 30.941406 C 189.476562 31.921875 187.59375 33.058594 185.867188 34.347656 C 184.136719 35.636719 182.726562 37.023438 181.636719 38.507812 C 180.542969 39.996094 180 41.527344 180 43.101562 C 180 44.019531 180.492188 44.664062 181.476562 45.035156 C 182.460938 45.40625 183.695312 45.59375 185.183594 45.59375 C 186.796875 45.59375 188.566406 45.441406 190.484375 45.136719 C 192.410156 44.828125 194.289062 44.445312 196.125 43.988281 C 197.960938 43.527344 199.535156 43.09375 200.847656 42.679688 C 202.15625 42.265625 202.988281 41.96875 203.335938 41.785156 L 203.335938 54.703125 C 201.980469 54.925781 200.667969 55.109375 199.402344 55.261719 C 198.136719 55.414062 196.5625 55.488281 194.683594 55.488281 C 190.835938 55.488281 187.777344 55.164062 185.503906 54.511719 C 183.234375 53.851562 181.542969 52.914062 180.429688 51.691406 C 179.316406 50.464844 178.601562 49.011719 178.292969 47.332031 C 177.988281 45.652344 177.933594 43.757812 178.132812 41.660156 C 178.328125 39.558594 178.589844 37.320312 178.917969 34.9375 C 179.242188 32.554688 179.472656 30.066406 179.601562 27.464844 C 179.738281 24.863281 179.585938 22.199219 179.144531 19.46875 C 178.710938 16.738281 177.816406 13.996094 176.460938 11.234375 L 187.277344 11.234375 C 188.285156 12.113281 188.941406 13.210938 189.246094 14.519531 C 189.546875 15.832031 189.566406 17.195312 189.304688 18.613281 C 189.042969 20.035156 188.585938 21.367188 187.925781 22.617188 C 187.273438 23.863281 186.488281 24.878906 185.570312 25.664062 L 186.230469 26.382812 C 187.144531 25.074219 188.25 23.6875 189.539062 22.222656 C 190.828125 20.757812 192.324219 19.523438 194.023438 18.523438 C 195.730469 17.515625 197.589844 17.011719 199.605469 17.011719 C 200.738281 17.011719 201.675781 17.273438 202.417969 17.796875 Z M 202.417969 27.625 " fill-opacity="1" fill-rule="nonzero"/><g clip-path="url(#572a7b1e1c)"><g clip-path="url(#163072ac2c)"><g clip-path="url(#376f06f848)"><path fill="#012b1b" d="M 0.164062 0.433594 L 12.214844 0.433594 L 12.214844 2.457031 L 0.164062 2.457031 Z M 0.164062 0.433594 " fill-opacity="1" fill-rule="nonzero"/></g></g></g><g clip-path="url(#234860dd48)"><g clip-path="url(#803fc3ddc2)"><g clip-path="url(#6cdc60ba87)"><path fill="#012b1b" d="M 0.164062 1.4375 L 12.21875 1.4375 L 12.21875 14.300781 L 0.164062 14.300781 Z M 0.164062 1.4375 " fill-opacity="1" fill-rule="nonzero"/></g></g></g></svg>