<svg xmlns="http://www.w3.org/2000/svg" xmlns:xlink="http://www.w3.org/1999/xlink" width="548" zoomAndPan="magnify" viewBox="0 0 410.88 414.749985" height="553" preserveAspectRatio="xMidYMid meet" version="1.0"><defs><clipPath id="1c003cd4a3"><path d="M 1 5 L 410 5 L 410 413.75 L 1 413.75 Z M 1 5 " clip-rule="nonzero"/></clipPath></defs><g clip-path="url(#1c003cd4a3)"><path fill="#ecf96e" d="M 1.003906 5.230469 L 409.734375 5.230469 L 409.734375 413.960938 L 1.003906 413.960938 Z M 1.003906 5.230469 " fill-opacity="1" fill-rule="nonzero"/></g><path fill="#012b1a" d="M 293.875 110.871094 L 27.859375 209.597656 C 0.59375 136.140625 38.050781 54.492188 111.507812 27.230469 C 184.964844 -0.03125 266.613281 37.414062 293.875 110.871094 Z M 293.875 110.871094 " fill-opacity="1" fill-rule="nonzero"/><path fill="#012b1a" d="M 347.8125 189.652344 L 368.5 317.859375 L 267.808594 399.894531 L 146.421875 353.707031 L 125.730469 225.496094 L 226.425781 143.464844 Z M 347.8125 189.652344 " fill-opacity="1" fill-rule="nonzero"/><path fill="#012b1a" d="M 94.21875 286.371094 L 130.292969 288.777344 L 82.195312 358.511719 L 80.59375 400.996094 L 49.332031 366.523438 L 18.957031 374.542969 L 32.492188 339.269531 L 18.957031 285.5625 L 45.320312 295.984375 L 74.976562 230.253906 Z M 319.609375 116.871094 C 305.394531 116.871094 293.867188 128.398438 293.867188 142.613281 C 293.867188 156.828125 305.394531 168.355469 319.609375 168.355469 C 333.824219 168.355469 345.351562 156.828125 345.351562 142.613281 C 345.351562 128.398438 333.824219 116.871094 319.609375 116.871094 Z M 356.453125 71.453125 C 342.234375 71.453125 330.710938 82.980469 330.710938 97.195312 C 330.710938 111.410156 342.238281 122.9375 356.453125 122.9375 C 370.667969 122.9375 382.195312 111.410156 382.195312 97.195312 C 382.195312 82.980469 370.667969 71.453125 356.453125 71.453125 Z M 356.453125 71.453125 " fill-opacity="1" fill-rule="nonzero"/></svg>